<svg width="568" height="486" viewBox="0 0 568 486" fill="none" xmlns="http://www.w3.org/2000/svg">
  <g clip-path="url(#clip0)">
    <path d="M315.014 0H568V247.742C568 272.19 558.308 295.637 541.055 312.925C523.803 330.213 500.404 339.925 476.005 339.925H315.014C290.615 339.925 267.216 330.213 249.964 312.925C232.711 295.637 223.019 272.19 223.019 247.742V92.183C223.019 67.7345 232.711 44.2874 249.964 26.9998C267.216 9.7121 290.615 0 315.014 0V0Z" fill="#F08052"/>
    <path d="M250 211C250 207.686 252.686 205 256 205H482C485.314 205 488 207.686 488 211V221H250V211Z" fill="#E5E9F4"/>
    <path d="M104.19 286.729H166.057C190.455 286.729 213.855 296.441 231.107 313.729C248.359 331.016 258.052 354.463 258.052 378.912V486H104.19C79.7915 486 56.3922 476.288 39.1398 459C21.8874 441.712 12.1951 418.265 12.1951 393.817V378.912C12.1951 354.463 21.8874 331.016 39.1398 313.729C56.3922 296.441 79.7915 286.729 104.19 286.729V286.729Z" fill="#D4EBED"/>
    <path d="M156.144 232.237H187.457C193.99 232.237 200.256 234.838 204.876 239.466C209.497 244.095 212.093 250.373 212.094 256.919V256.919C212.093 263.466 209.497 269.744 204.876 274.373C200.256 279.001 193.99 281.601 187.457 281.601H106.875C106.877 268.509 112.068 255.953 121.308 246.695C130.547 237.438 143.078 232.237 156.144 232.237Z" stroke="#18233D" stroke-width="0.8" stroke-linecap="round"/>
    <path d="M138.291 261.523C140.883 261.523 142.983 259.462 142.983 256.919C142.983 254.377 140.883 252.316 138.291 252.316C135.7 252.316 133.6 254.377 133.6 256.919C133.6 259.462 135.7 261.523 138.291 261.523Z" fill="#18233D"/>
    <path d="M159.071 261.523C161.662 261.523 163.763 259.462 163.763 256.919C163.763 254.377 161.662 252.316 159.071 252.316C156.48 252.316 154.379 254.377 154.379 256.919C154.379 259.462 156.48 261.523 159.071 261.523Z" fill="#18233D"/>
    <path d="M179.844 261.523C182.436 261.523 184.536 259.462 184.536 256.919C184.536 254.377 182.436 252.316 179.844 252.316C177.253 252.316 175.153 254.377 175.153 256.919C175.153 259.462 177.253 261.523 179.844 261.523Z" fill="#18233D"/>
    <path fill-rule="evenodd" clip-rule="evenodd" d="M146.508 394.214C160.334 386.924 175.732 383.136 191.355 383.181C206.259 383.181 226.296 386.909 242.045 396.698C252.543 403.227 261.114 420.884 267.757 449.668H141.166C127.75 456.052 117.445 457.502 110.25 454.018C103.055 450.534 100.52 442.885 102.643 431.07C122.307 411.593 136.929 399.307 146.508 394.214Z" fill="#8AA4D5"/>
    <path d="M194.978 414.645C196.13 414.645 197.065 413.708 197.065 412.553C197.065 411.398 196.13 410.462 194.978 410.462C193.825 410.462 192.891 411.398 192.891 412.553C192.891 413.708 193.825 414.645 194.978 414.645Z" fill="#E5E9F4"/>
    <path d="M194.978 431.382C196.13 431.382 197.065 430.445 197.065 429.29C197.065 428.135 196.13 427.199 194.978 427.199C193.825 427.199 192.891 428.135 192.891 429.29C192.891 430.445 193.825 431.382 194.978 431.382Z" fill="#E5E9F4"/>
    <path d="M194.978 447.283C196.13 447.283 197.065 446.347 197.065 445.192C197.065 444.037 196.13 443.1 194.978 443.1C193.825 443.1 192.891 444.037 192.891 445.192C192.891 446.347 193.825 447.283 194.978 447.283Z" fill="#E5E9F4"/>
    <path opacity="0.22" fill-rule="evenodd" clip-rule="evenodd" d="M141.166 449.668L160.209 428.76L155.23 449.542L141.166 449.668Z" fill="#4C6DB3"/>
    <path fill-rule="evenodd" clip-rule="evenodd" d="M100.395 421.011C95.8607 431.823 95.8607 440.129 100.395 445.929C107.197 454.635 119.197 457.901 128.189 447.658C134.18 440.821 133.596 429.505 126.436 413.711L100.395 421.011Z" fill="#A8BDE3"/>
    <path d="M190.384 408.37L188.992 449.668" stroke="white" stroke-linecap="round"/>
    <path fill-rule="evenodd" clip-rule="evenodd" d="M179.718 381.102C176.268 382.219 171.668 383.037 170.783 387.543C170.193 390.546 170.193 398.745 170.783 412.138L190.746 404.649L210.295 410.986C210.678 394.697 209.965 385.478 208.156 383.331C206.347 381.184 202.655 380.251 197.082 380.531C187.81 380.166 182.022 380.356 179.718 381.102Z" fill="#18233D"/>
    <path fill-rule="evenodd" clip-rule="evenodd" d="M184.226 351.056C184.709 362.071 183.003 373.348 179.108 384.887L190.395 408.791L205.419 387.289V351.056H184.226Z" fill="#F7B293"/>
    <path fill-rule="evenodd" clip-rule="evenodd" d="M177.366 348.544C167.646 339.629 166.078 331.108 172.663 322.98C179.248 314.853 189.088 312.394 202.182 315.605C206.989 314.534 210.642 315.233 213.141 317.703C216.895 321.407 218.586 329.888 210.496 336.105C205.103 340.245 194.06 344.392 177.366 348.544Z" fill="#18233D"/>
    <path d="M171.594 365.281C178.742 365.281 184.536 359.474 184.536 352.312C184.536 345.149 178.742 339.343 171.594 339.343C164.446 339.343 158.651 345.149 158.651 352.312C158.651 359.474 164.446 365.281 171.594 365.281Z" fill="#18233D"/>
    <path d="M192.886 340.995C202.917 334.714 207.386 323.748 202.868 316.503C198.35 309.258 186.556 308.476 176.524 314.757C166.493 321.038 162.024 332.003 166.542 339.249C171.06 346.494 182.855 347.276 192.886 340.995Z" fill="#48529F"/>
    <path d="M201.159 313.785C201.829 326.733 190.267 335.494 166.471 340.068" stroke="white"/>
    <path d="M197.369 310.858C198.044 323.806 186.481 332.569 162.682 337.147" stroke="white"/>
    <path d="M210.841 364.86C215.452 364.86 219.19 361.115 219.19 356.494C219.19 351.874 215.452 348.129 210.841 348.129C206.23 348.129 202.492 351.874 202.492 356.494C202.492 361.115 206.23 364.86 210.841 364.86Z" stroke="white"/>
    <path fill-rule="evenodd" clip-rule="evenodd" d="M184.536 351.056H205.419V367.764C194.744 362.959 187.783 357.389 184.536 351.056Z" fill="#D08C54"/>
    <path fill-rule="evenodd" clip-rule="evenodd" d="M213.469 326.529C218.701 346.959 218.272 358.722 212.181 361.818C203.039 366.427 186.048 352.738 184.007 350.802C179.637 352.339 176.642 351.837 175.02 349.298C172.588 345.479 172.916 340.927 180.132 340.927C187.348 340.927 203.021 332.729 204.614 322.439C208.309 320.799 211.261 322.162 213.469 326.529Z" fill="#F7B293"/>
    <path d="M182.449 364.86C187.06 364.86 190.798 361.115 190.798 356.494C190.798 351.874 187.06 348.129 182.449 348.129C177.838 348.129 174.101 351.874 174.101 356.494C174.101 361.115 177.838 364.86 182.449 364.86Z" stroke="white"/>
    <path d="M212.652 330.971C209.279 331.904 208.691 334.338 210.887 338.271C212.42 340.821 213.936 343.408 215.435 346.031H212.031" stroke="#18233D" stroke-linecap="round"/>
    <path d="M176.188 346.032L182.029 346.873" stroke="#18233D" stroke-linecap="round"/>
    <path d="M195.817 335.765C198.067 333.725 200.189 332.922 202.182 333.356" stroke="#18233D" stroke-linecap="round"/>
    <path d="M202.073 337.666C202.533 337.666 202.906 337.292 202.906 336.831C202.906 336.369 202.533 335.995 202.073 335.995C201.612 335.995 201.239 336.369 201.239 336.831C201.239 337.292 201.612 337.666 202.073 337.666Z" fill="#18233D"/>
    <path d="M212.928 335.989C213.389 335.989 213.762 335.615 213.762 335.154C213.762 334.693 213.389 334.319 212.928 334.319C212.468 334.319 212.094 334.693 212.094 335.154C212.094 335.615 212.468 335.989 212.928 335.989Z" fill="#18233D"/>
    <path fill-rule="evenodd" clip-rule="evenodd" d="M206.247 351.056H213.762C213.628 352.726 212.558 353.562 210.554 353.562C209.669 353.617 208.788 353.409 208.021 352.963C207.255 352.517 206.637 351.853 206.247 351.056V351.056Z" fill="white"/>
    <path fill-rule="evenodd" clip-rule="evenodd" d="M99.4466 427.758C99.4466 437.552 101.637 449.789 111.699 449.789C121.761 449.789 127.005 432.315 124.383 410.554C122.635 396.047 120.144 376.973 116.908 353.331L117.167 353.032C121.945 347.45 125.598 340.993 127.925 334.019V334.019L130.886 329.318C131.077 329.013 131.15 328.648 131.089 328.293C131.029 327.938 130.84 327.618 130.558 327.393C130.259 327.152 129.893 327.008 129.51 326.981C129.127 326.953 128.745 327.043 128.414 327.238L126.97 328.091C125.276 329.094 123.811 330.442 122.67 332.049L119.749 336.168L122.049 314.039C122.102 313.54 121.967 313.039 121.672 312.634C121.376 312.229 120.941 311.95 120.45 311.849V311.849C119.971 311.753 119.474 311.849 119.064 312.116C118.655 312.383 118.366 312.8 118.26 313.278L114.81 329.012L113.464 310.311C113.428 309.787 113.195 309.297 112.812 308.938C112.429 308.58 111.924 308.381 111.4 308.381V308.381C110.878 308.38 110.376 308.58 109.996 308.939C109.616 309.298 109.388 309.789 109.359 310.311L108.313 329.012L104.397 314.667C104.263 314.176 103.946 313.757 103.511 313.495C103.076 313.233 102.558 313.149 102.063 313.261C101.57 313.374 101.14 313.675 100.865 314.099C100.589 314.524 100.489 315.039 100.585 315.536C102.67 326.191 103.565 331.298 103.27 330.856C102.975 330.414 101.879 327.879 99.9813 323.251C99.8207 322.869 99.5285 322.558 99.1581 322.374C98.7877 322.19 98.3636 322.146 97.9632 322.249C97.5752 322.352 97.2429 322.603 97.0376 322.949C96.8323 323.294 96.7704 323.707 96.865 324.098L101.011 341.33L102.804 352.617C100.57 396.193 99.4504 421.24 99.4466 427.758Z" fill="#F7B293"/>
    <path d="M119.404 335.154C112.723 338.569 109.382 341.642 109.382 344.373" stroke="white" stroke-linecap="round"/>
    <path d="M101.867 330.971C105.9 328.636 110.902 327.937 116.874 328.874" stroke="white" stroke-linecap="round"/>
    <path d="M239.342 425.816C237.15 440.201 234.739 448.109 232.109 449.542" stroke="white" stroke-linecap="round"/>
    <path fill-rule="evenodd" clip-rule="evenodd" d="M340.491 363.339H222.335C221.706 363.338 221.1 363.575 220.637 364.002C220.175 364.429 219.89 365.015 219.839 365.644L213.969 441.798C213.918 442.461 214.132 443.117 214.563 443.623C214.994 444.128 215.607 444.442 216.269 444.495H334.62C335.25 444.495 335.857 444.259 336.32 443.832C336.783 443.405 337.069 442.819 337.121 442.19L342.986 366.07C343.037 365.407 342.823 364.751 342.392 364.245C341.961 363.74 341.348 363.426 340.686 363.374L340.491 363.339Z" fill="#18233D"/>
    <path fill-rule="evenodd" clip-rule="evenodd" d="M342.158 363.339H224.002C223.374 363.34 222.768 363.577 222.306 364.004C221.844 364.431 221.559 365.016 221.507 365.644L215.642 441.787C215.591 442.45 215.805 443.106 216.236 443.611C216.667 444.117 217.28 444.43 217.942 444.483H336.293C336.922 444.484 337.528 444.247 337.991 443.82C338.453 443.393 338.738 442.807 338.789 442.178L344.653 366.07C344.704 365.407 344.491 364.751 344.06 364.245C343.628 363.74 343.015 363.426 342.354 363.374L342.158 363.339Z" fill="#E5E9F4"/>
    <path opacity="0.3" fill-rule="evenodd" clip-rule="evenodd" d="M267.579 418.562L256.35 444.5H299.771L294.942 420.4L267.579 418.562Z" fill="#59637A"/>
    <path fill-rule="evenodd" clip-rule="evenodd" d="M260.524 463.934L276.876 472.95H308.126L296.776 463.934L260.524 461.237V463.934Z" fill="#18233D"/>
    <path fill-rule="evenodd" clip-rule="evenodd" d="M260.524 461.237L275.985 470.024L308.126 470.444L296.776 461.237H260.524Z" fill="#E5E9F4"/>
    <path fill-rule="evenodd" clip-rule="evenodd" d="M298.489 418.562H267.205L274.335 471.28H305.619L298.489 418.562ZM285.265 449.138C284.027 449.154 282.812 448.801 281.774 448.123C280.737 447.446 279.924 446.474 279.439 445.332C278.954 444.191 278.819 442.93 279.051 441.711C279.282 440.492 279.871 439.37 280.741 438.486C281.611 437.603 282.723 436.999 283.936 436.751C285.15 436.503 286.409 436.622 287.555 437.094C288.701 437.565 289.681 438.366 290.37 439.397C291.06 440.428 291.429 441.641 291.429 442.881C291.434 443.7 291.278 444.512 290.969 445.27C290.66 446.028 290.205 446.718 289.63 447.299C289.054 447.881 288.37 448.342 287.616 448.658C286.862 448.974 286.053 449.137 285.236 449.138H285.265Z" fill="#18233D"/>
    <path fill-rule="evenodd" clip-rule="evenodd" d="M300.398 418.562H268.873L276.6 472.95H308.12L300.398 418.562ZM287.806 449.133C286.581 449.13 285.383 448.764 284.365 448.08C283.347 447.396 282.555 446.425 282.088 445.289C281.62 444.154 281.5 442.905 281.741 441.701C281.982 440.497 282.573 439.391 283.441 438.524C284.309 437.657 285.414 437.067 286.616 436.829C287.819 436.591 289.065 436.715 290.196 437.187C291.328 437.658 292.295 438.455 292.975 439.477C293.655 440.499 294.017 441.699 294.016 442.928C294.013 444.575 293.357 446.154 292.193 447.318C291.028 448.481 289.451 449.134 287.806 449.133V449.133Z" fill="#E5E9F4"/>
    <path fill-rule="evenodd" clip-rule="evenodd" d="M115.511 405.519L34.8547 406.429L16.3694 317.167H86.9756C89.9586 317.166 92.8503 318.198 95.1616 320.088C97.4728 321.977 99.0617 324.609 99.6594 327.538L115.511 405.519Z" fill="white" stroke="#18233D"/>
    <path d="M56.8184 345.778L92.7252 345.905" stroke="#18233D" stroke-linecap="round"/>
    <path d="M49.6026 350.802L93.8464 350.941" stroke="#18233D" stroke-linecap="round"/>
    <path d="M59.4058 361.68L95.3011 361.818" stroke="#18233D" stroke-linecap="round"/>
    <path d="M77.2356 366.698L96.428 366.842" stroke="#18233D" stroke-linecap="round"/>
    <path d="M63.7641 379.252L99.6593 379.391" stroke="#18233D" stroke-linecap="round"/>
    <path d="M85.7681 384.271L100.786 384.409" stroke="#18233D" stroke-linecap="round"/>
    <path fill-rule="evenodd" clip-rule="evenodd" d="M30.3411 343.526H38.6954L40.0753 351.891H31.7268L30.3411 343.526Z" fill="#49B58D"/>
    <path fill-rule="evenodd" clip-rule="evenodd" d="M34.5211 360.257H42.8697L44.2496 368.628H35.9011L34.5211 360.257Z" fill="#49B58D"/>
    <path fill-rule="evenodd" clip-rule="evenodd" d="M38.6954 376.994H47.044L48.4239 385.359H40.0753L38.6954 376.994Z" fill="#49B58D"/>
    <path fill-rule="evenodd" clip-rule="evenodd" d="M86.8375 316.746C84.0461 316.746 81.356 317.794 79.2984 319.684C77.2407 321.575 75.9651 324.169 75.7234 326.956L75.4129 330.556H0.667C0.0777933 329.014 -0.128246 327.351 0.0666332 325.711C0.261512 324.071 0.851465 322.503 1.78565 321.142C2.71984 319.781 3.97023 318.669 5.42907 317.9C6.88791 317.131 8.51144 316.729 10.1597 316.729L86.8375 316.746Z" fill="#527ABC"/>
    <path d="M250 221H489V351.38C489 352.871 488.392 354.3 487.309 355.354C486.227 356.408 484.758 357 483.227 357H255.773C254.242 357 252.774 356.408 251.691 355.354C250.608 354.3 250 352.871 250 351.38V221Z" fill="white"/>
    <path d="M482.232 205.043H256.77C253.08 205.043 250.088 208.041 250.088 211.738V350.635C250.088 354.332 253.08 357.33 256.77 357.33H482.232C485.922 357.33 488.913 354.332 488.913 350.635V211.738C488.913 208.041 485.922 205.043 482.232 205.043Z" stroke="#18233D"/>
    <path d="M470.123 233.908H337.351V341.849H470.123V233.908Z" fill="#E5E9F4"/>
    <path d="M258.023 215.501C259.407 215.501 260.53 214.376 260.53 212.989C260.53 211.601 259.407 210.477 258.023 210.477C256.638 210.477 255.516 211.601 255.516 212.989C255.516 214.376 256.638 215.501 258.023 215.501Z" fill="white"/>
    <path d="M266.372 215.501C267.756 215.501 268.878 214.376 268.878 212.989C268.878 211.601 267.756 210.477 266.372 210.477C264.987 210.477 263.865 211.601 263.865 212.989C263.865 214.376 264.987 215.501 266.372 215.501Z" fill="#FBD1AC"/>
    <path d="M274.72 215.501C276.105 215.501 277.227 214.376 277.227 212.989C277.227 211.601 276.105 210.477 274.72 210.477C273.336 210.477 272.213 211.601 272.213 212.989C272.213 214.376 273.336 215.501 274.72 215.501Z" fill="#49B58D"/>
    <path fill-rule="evenodd" clip-rule="evenodd" d="M387.425 246.48C376.076 248.665 367.035 250.926 360.304 253.261C353.573 255.596 340.349 267.409 320.631 288.7L338.973 306.151L354.037 297.267C356.003 322.475 361.057 337.011 369.199 340.875L431.02 341.29C435.953 337.941 441.264 321.39 446.952 291.638L463.626 303.639L474.401 274.866C457.129 260.931 446.835 253.734 443.519 253.273C440.204 252.812 425.862 249.591 400.494 243.611L387.425 246.48Z" fill="#18233D"/>
    <path d="M382.458 245.8C378.824 257.25 381.95 263.568 391.835 264.755C401.721 265.942 412.166 260.211 423.171 247.563" stroke="#E5E9F4"/>
    <path d="M446.82 292.439C441.162 286.785 437.329 282.057 435.32 278.254" stroke="#E5E9F4"/>
    <path fill-rule="evenodd" clip-rule="evenodd" d="M409.493 215.696C415.963 203.202 415.727 195.551 408.785 192.743C408.406 183.778 400.109 182.712 390.438 183.726C380.767 184.74 370.418 188.387 373.914 194.673C377.409 200.959 368.63 201.5 376.61 207.694C381.934 211.823 392.029 215.487 406.894 218.687L409.493 215.696Z" fill="#18233D"/>
    <path fill-rule="evenodd" clip-rule="evenodd" d="M407.469 220.674C405.905 229.72 407.833 238.971 413.253 248.427C407.465 255.414 401.091 258.907 394.13 258.907C387.169 258.907 385.515 255.416 389.168 248.433L388.667 224.339L407.469 220.674Z" fill="#FBD1AC"/>
    <path fill-rule="evenodd" clip-rule="evenodd" d="M388.943 224.246L389.208 240.378C399.172 235.769 405.732 226.972 407.498 220.622L388.943 224.246Z" fill="#F49B63"/>
    <path fill-rule="evenodd" clip-rule="evenodd" d="M377.582 204.83C376.336 223.447 378.697 233.564 384.666 235.182C393.624 237.607 406.514 222.766 408.004 220.732C412.174 221.304 414.769 220.344 415.789 217.851C417.324 214.123 414.874 210.505 408.418 211.767C407.434 211.957 405.928 218.514 404.617 218.45C403.306 218.387 403.467 211.421 401.926 211.093C395.251 211.496 400.776 201.385 399.051 199.103C396.723 196.038 390.835 199.68 384.832 199.737C381.141 199.361 378.724 201.058 377.582 204.83Z" fill="#FBD1AC"/>
    <path fill-rule="evenodd" clip-rule="evenodd" d="M378.542 226.453C379.175 228.861 381.561 229.706 385.7 228.988C391.904 227.916 391.715 222.334 397.068 222.898C400.636 223.282 402.871 221.606 403.772 217.868L406.353 214.412C406.451 217.713 406.457 220.087 406.353 221.539C406.204 223.716 400.316 232.364 390.645 236.518C387.195 237.999 381.883 237.094 379.819 235.101C378.611 233.945 378.186 231.062 378.542 226.453Z" fill="#4A515F"/>
    <path fill-rule="evenodd" clip-rule="evenodd" d="M386.862 222.685L380.917 222.478C380.963 224.183 381.779 225.065 383.366 225.122C384.953 225.18 386.118 224.367 386.862 222.685Z" fill="white"/>
    <path fill-rule="evenodd" clip-rule="evenodd" d="M378.134 222.754C378.502 223.907 382.159 223.33 382.964 222.754C384.177 223.181 388.092 224.31 389.616 223.578C391.14 222.846 388.8 222.316 386.833 221.579C385.546 221.087 384.185 220.819 382.808 220.784C379.443 221.341 377.885 221.998 378.134 222.754Z" fill="#18233D"/>
    <path d="M379.819 207.63C383.268 207.796 384.259 209.804 382.791 213.657C381.71 216.18 380.66 218.729 379.64 221.302L382.975 220.651" stroke="#18233D" stroke-linecap="round"/>
    <path d="M412.615 215.575L409.234 217.304" stroke="#18233D" stroke-linecap="round"/>
    <path d="M393.831 210.079C391.496 208.681 389.484 208.345 387.793 209.071" stroke="#18233D" stroke-linecap="round"/>
    <path d="M389.168 212.522C389.628 212.522 390.001 212.148 390.001 211.686C390.001 211.225 389.628 210.851 389.168 210.851C388.707 210.851 388.334 211.225 388.334 211.686C388.334 212.148 388.707 212.522 389.168 212.522Z" fill="#18233D"/>
    <path d="M379.985 211.687C380.446 211.687 380.819 211.312 380.819 210.851C380.819 210.39 380.446 210.016 379.985 210.016C379.525 210.016 379.152 210.39 379.152 210.851C379.152 211.312 379.525 211.687 379.985 211.687Z" fill="#18233D"/>
    <path fill-rule="evenodd" clip-rule="evenodd" d="M458.584 300.511C464.226 309.406 471.346 313.314 479.944 312.235C492.834 310.622 493.576 282.915 487.545 277.741C481.513 272.568 472.25 264.07 462.821 270.563C456.558 274.891 455.145 284.874 458.584 300.511Z" fill="#8AA4D5"/>
    <path fill-rule="evenodd" clip-rule="evenodd" d="M489.942 289.276C488.925 299.001 485.475 310.956 475.465 309.902C465.454 308.847 462.062 290.889 466.944 269.572C470.194 255.329 474.667 236.622 480.363 213.45L480.139 213.121C475.968 207.072 473.007 200.268 471.423 193.089V193.089L468.967 188.099C468.809 187.776 468.775 187.406 468.871 187.06C468.968 186.714 469.188 186.415 469.491 186.221C469.814 186.013 470.193 185.908 470.577 185.921C470.961 185.933 471.332 186.062 471.641 186.29L472.986 187.293C474.567 188.466 475.883 189.96 476.85 191.677L479.334 196.079V173.828C479.331 173.326 479.515 172.84 479.852 172.468C480.188 172.096 480.652 171.864 481.151 171.817V171.817C481.637 171.77 482.123 171.917 482.502 172.225C482.882 172.533 483.126 172.979 483.181 173.465L484.957 189.476L488.246 171.04C488.333 170.519 488.614 170.05 489.032 169.729C489.451 169.408 489.976 169.259 490.5 169.311V169.311C491.019 169.366 491.498 169.619 491.838 170.016C492.178 170.413 492.353 170.926 492.328 171.449L491.42 190.156L496.807 176.3C496.992 175.826 497.352 175.441 497.813 175.227C498.273 175.012 498.799 174.984 499.28 175.147V175.147C499.757 175.312 500.152 175.656 500.381 176.106C500.61 176.556 500.657 177.078 500.51 177.562C497.325 187.932 495.903 192.925 496.244 192.541C496.585 192.157 497.938 189.751 500.303 185.322C500.502 184.958 500.826 184.677 501.214 184.532C501.603 184.387 502.031 184.388 502.419 184.533C502.793 184.679 503.096 184.965 503.263 185.33C503.43 185.696 503.449 186.112 503.316 186.492L497.4 203.2L494.439 214.239C492.123 257.784 490.625 282.796 489.942 289.276Z" fill="#FBD1AC"/>
    <path d="M479.76 195.088C486.05 199.19 489.051 202.591 488.764 205.291" stroke="white" stroke-linecap="round"/>
    <path d="M497.635 192.766C493.875 190.008 488.965 188.789 482.905 189.107" stroke="white" stroke-linecap="round"/>
    <path fill-rule="evenodd" clip-rule="evenodd" d="M426.282 336.41V341.434H368.71C368.814 340.068 369.43 338.791 370.433 337.86C371.436 336.928 372.753 336.41 374.121 336.41H426.282Z" fill="white" stroke="#18233D"/>
    <path fill-rule="evenodd" clip-rule="evenodd" d="M373.143 278.675L385.275 341.434H383.602L287.893 338.928L274.565 280.847L276.014 278.675H373.143Z" fill="white" stroke="#18233D"/>
    <path fill-rule="evenodd" clip-rule="evenodd" d="M371.821 280.766H274.116L285.892 341.849H383.59L371.821 280.766Z" fill="#49B58D"/>
    <path d="M328.06 315.911C330.597 315.911 332.654 313.85 332.654 311.307C332.654 308.765 330.597 306.704 328.06 306.704C325.523 306.704 323.466 308.765 323.466 311.307C323.466 313.85 325.523 315.911 328.06 315.911Z" fill="white"/>
  </g>
  <defs>
    <clipPath id="clip0">
      <rect width="568" height="486" fill="white"/>
    </clipPath>
  </defs>
</svg>
