<svg width="20" height="20" viewBox="0 0 20 20" fill="none" xmlns="http://www.w3.org/2000/svg">
<path d="M15.8309 16.6668C8.72126 16.6769 3.32541 11.2164 3.33302 4.16892C3.33302 3.70869 3.70612 3.3335 4.16635 3.3335H6.36582C6.77879 3.3335 7.12962 3.63694 7.19026 4.04544C7.3356 5.0245 7.62065 5.97764 8.03674 6.87575L8.12238 7.06058C8.24145 7.31759 8.16074 7.62295 7.93024 7.78755C7.24909 8.27399 6.98877 9.25316 7.51942 10.0172C8.18532 10.9758 9.02476 11.8151 9.98326 12.4807C10.7472 13.0112 11.7262 12.7509 12.2126 12.0698C12.3773 11.8392 12.6828 11.7585 12.94 11.8776L13.124 11.9628C14.0222 12.3789 14.9753 12.664 15.9545 12.8093C16.363 12.8699 16.6663 13.2207 16.6663 13.6337V15.8335C16.6663 16.2937 16.2923 16.6668 15.8321 16.6668H15.8309Z" fill="#fff"/>
</svg>
